<?xml version="1.0" encoding="UTF-8"?>
<!DOCTYPE svg PUBLIC "-//W3C//DTD SVG 1.1//EN" "http://www.w3.org/Graphics/SVG/1.1/DTD/svg11.dtd">
<svg xmlns="http://www.w3.org/2000/svg" version="1.1" width="500px" height="138px" style="shape-rendering:geometricPrecision; text-rendering:geometricPrecision; image-rendering:optimizeQuality; fill-rule:evenodd; clip-rule:evenodd" xmlns:xlink="http://www.w3.org/1999/xlink">
<g><path style="opacity:0.974" fill="#88c848" d="M 403.5,-0.5 C 404.5,-0.5 405.5,-0.5 406.5,-0.5C 393.162,15.8335 379.162,31.5002 364.5,46.5C 364.5,44.1667 364.5,41.8333 364.5,39.5C 375.814,27.5156 386.814,15.1822 397.5,2.5C 399.371,1.20278 401.371,0.202776 403.5,-0.5 Z"/></g>
<g><path style="opacity:0.997" fill="#85c749" d="M 406.5,-0.5 C 410.5,-0.5 414.5,-0.5 418.5,-0.5C 400.923,20.0734 382.923,40.0734 364.5,59.5C 364.5,55.1667 364.5,50.8333 364.5,46.5C 379.162,31.5002 393.162,15.8335 406.5,-0.5 Z"/></g>
<g><path style="opacity:0.976" fill="#7fc54b" d="M 418.5,-0.5 C 425.167,-0.5 431.833,-0.5 438.5,-0.5C 428.808,10.0236 419.308,20.6903 410,31.5C 408.25,33.7343 406.75,36.0676 405.5,38.5C 399.981,38.0037 394.315,38.0037 388.5,38.5C 388.5,41.5 388.5,44.5 388.5,47.5C 390.833,47.5 393.167,47.5 395.5,47.5C 386.177,58.8219 376.51,69.8219 366.5,80.5C 365.71,79.3915 365.21,78.0581 365,76.5C 364.501,70.8431 364.334,65.1764 364.5,59.5C 382.923,40.0734 400.923,20.0734 418.5,-0.5 Z"/></g>
<g><path style="opacity:0.961" fill="#79c44d" d="M 438.5,-0.5 C 441.167,-0.5 443.833,-0.5 446.5,-0.5C 448.888,0.348502 451.221,1.3485 453.5,2.5C 442.425,13.9047 432.092,25.9047 422.5,38.5C 416.833,38.5 411.167,38.5 405.5,38.5C 406.75,36.0676 408.25,33.7343 410,31.5C 419.308,20.6903 428.808,10.0236 438.5,-0.5 Z"/></g>
<g><path style="opacity:0.899" fill="#8ac848" d="M 397.5,2.5 C 386.814,15.1822 375.814,27.5156 364.5,39.5C 368.832,21.1707 379.832,8.83734 397.5,2.5 Z"/></g>
<g><path style="opacity:0.955" fill="#73c24f" d="M 453.5,2.5 C 458.086,3.45979 462.086,5.45979 465.5,8.5C 456.363,18.1173 447.697,28.1173 439.5,38.5C 433.833,38.5 428.167,38.5 422.5,38.5C 432.092,25.9047 442.425,13.9047 453.5,2.5 Z"/></g>
<g><path style="opacity:0.947" fill="#6fc250" d="M 465.5,8.5 C 467.23,9.02561 468.564,10.0256 469.5,11.5C 463.542,18.6286 457.375,25.6286 451,32.5C 449.579,34.4048 448.412,36.4048 447.5,38.5C 444.833,38.5 442.167,38.5 439.5,38.5C 447.697,28.1173 456.363,18.1173 465.5,8.5 Z"/></g>
<g><path style="opacity:0.948" fill="#6cc150" d="M 469.5,11.5 C 470.833,12.1667 471.833,13.1667 472.5,14.5C 465.434,22.2272 458.767,30.2272 452.5,38.5C 450.833,38.5 449.167,38.5 447.5,38.5C 448.412,36.4048 449.579,34.4048 451,32.5C 457.375,25.6286 463.542,18.6286 469.5,11.5 Z"/></g>
<g><path style="opacity:0.932" fill="#6bc151" d="M 472.5,14.5 C 473.833,15.1667 474.833,16.1667 475.5,17.5C 468.802,23.892 462.802,30.892 457.5,38.5C 455.833,38.5 454.167,38.5 452.5,38.5C 458.767,30.2272 465.434,22.2272 472.5,14.5 Z"/></g>
<g><path style="opacity:0.963" fill="#66bf53" d="M 475.5,17.5 C 479.189,21.5392 481.855,26.2058 483.5,31.5C 458.118,58.8811 433.451,86.8811 409.5,115.5C 403.855,114.617 398.521,112.95 393.5,110.5C 403.833,98.5 414.167,86.5 424.5,74.5C 428.833,74.5 433.167,74.5 437.5,74.5C 437.5,71.1667 437.5,67.8333 437.5,64.5C 436.5,64.5 435.5,64.5 434.5,64.5C 439.143,58.8525 443.81,53.1858 448.5,47.5C 453.833,47.5 459.167,47.5 464.5,47.5C 464.665,44.1501 464.498,40.8168 464,37.5C 461.959,38.4231 459.792,38.7564 457.5,38.5C 462.802,30.892 468.802,23.892 475.5,17.5 Z"/></g>
<g><path style="opacity:0.953" fill="#222335" d="M 69.5,26.5 C 72.3347,29.1653 75.3347,31.6653 78.5,34C 73.9786,39.0203 69.6452,44.187 65.5,49.5C 76.5554,50.067 87.5554,50.9004 98.5,52C 100.709,53.8734 102.542,56.04 104,58.5C 104.203,62.4213 104.703,66.2546 105.5,70C 108.76,70.7835 111.927,70.6168 115,69.5C 116.407,52.5415 125.24,46.7081 141.5,52C 146.736,56.0367 149.07,61.37 148.5,68C 149.004,73.4894 147.338,78.156 143.5,82C 137.277,83.5815 130.944,83.9148 124.5,83C 123.069,82.5348 121.903,81.7014 121,80.5C 117.826,82.9935 114.159,83.9935 110,83.5C 106.302,83.6909 102.802,83.0242 99.5,81.5C 98.2054,82.0983 96.8721,82.5983 95.5,83C 76.5,83.6667 57.5,83.6667 38.5,83C 33.6667,80.8333 30.1667,77.3333 28,72.5C 26.7122,65.5631 26.2122,58.5631 26.5,51.5C 30.5,51.5 34.5,51.5 38.5,51.5C 38.334,56.8437 38.5006,62.1771 39,67.5C 39.8333,68.3333 40.6667,69.1667 41.5,70C 58.5,70.6667 75.5,70.6667 92.5,70C 93.8333,67.6667 93.8333,65.3333 92.5,63C 79.5,62.6667 66.5,62.3333 53.5,62C 50.4032,59.6094 48.2365,56.776 47,53.5C 54.7114,44.6268 62.2114,35.6268 69.5,26.5 Z M 128.5,62.5 C 131.167,62.5 133.833,62.5 136.5,62.5C 136.5,65.1667 136.5,67.8333 136.5,70.5C 133.5,70.5 130.5,70.5 127.5,70.5C 127.575,67.7938 127.908,65.1272 128.5,62.5 Z"/></g>
<g><path style="opacity:0.927" fill="#222335" d="M 152.5,30.5 C 156.5,30.5 160.5,30.5 164.5,30.5C 164.333,43.5043 164.5,56.5043 165,69.5C 169.079,70.6295 173.245,70.7961 177.5,70C 179.402,64.6606 180.735,59.1606 181.5,53.5C 185.1,53.7938 188.6,54.4604 192,55.5C 192.033,59.3531 191.533,63.1864 190.5,67C 190.585,68.1074 190.919,69.1074 191.5,70C 199.167,70.6667 206.833,70.6667 214.5,70C 215.476,63.9242 215.81,57.7576 215.5,51.5C 219.5,51.5 223.5,51.5 227.5,51.5C 227.666,58.175 227.5,64.8417 227,71.5C 226.004,77.1594 222.838,80.9927 217.5,83C 207.5,83.6667 197.5,83.6667 187.5,83C 186.069,82.5348 184.903,81.7014 184,80.5C 182.581,81.4601 181.081,82.2935 179.5,83C 173.833,83.6667 168.167,83.6667 162.5,83C 156.513,80.538 153.346,76.038 153,69.5C 152.5,56.5043 152.333,43.5043 152.5,30.5 Z"/></g>
<g><path style="opacity:0.945" fill="#222335" d="M 301.5,30.5 C 305.167,30.5 308.833,30.5 312.5,30.5C 312.186,43.5497 312.519,56.5497 313.5,69.5C 316.034,70.7766 318.534,70.7766 321,69.5C 322.126,65.5352 323.126,61.5352 324,57.5C 325.563,54.2716 328.063,52.1049 331.5,51C 351.286,49.1432 358.453,57.9765 353,77.5C 351.833,80 350,81.8333 347.5,83C 341.833,83.6667 336.167,83.6667 330.5,83C 329.069,82.5348 327.903,81.7014 327,80.5C 324.347,82.9407 321.18,83.9407 317.5,83.5C 313.58,83.8859 310.08,82.8859 307,80.5C 303.285,83.0761 299.118,84.0761 294.5,83.5C 295.024,90.9535 292.024,96.4535 285.5,100C 276.936,101.607 268.27,101.94 259.5,101C 253.667,99.1667 249.833,95.3333 248,89.5C 246.614,80.2338 246.114,70.9005 246.5,61.5C 250.5,61.5 254.5,61.5 258.5,61.5C 258.334,69.1739 258.5,76.8406 259,84.5C 259.833,85.3333 260.667,86.1667 261.5,87C 267.723,88.5815 274.056,88.9148 280.5,88C 281.687,86.9805 282.687,85.8139 283.5,84.5C 278.544,83.5059 273.544,83.1725 268.5,83.5C 268.5,79.1667 268.5,74.8333 268.5,70.5C 279.415,70.8203 290.248,70.487 301,69.5C 301.5,56.5043 301.667,43.5043 301.5,30.5 Z M 334.5,62.5 C 337.167,62.5 339.833,62.5 342.5,62.5C 342.5,65.1667 342.5,67.8333 342.5,70.5C 339.5,70.5 336.5,70.5 333.5,70.5C 333.575,67.7938 333.908,65.1272 334.5,62.5 Z"/></g>
<g><path style="opacity:0.984" fill="#60be54" d="M 483.5,31.5 C 485.739,36.4824 486.739,41.8157 486.5,47.5C 466.157,69.8444 446.157,92.511 426.5,115.5C 420.833,115.5 415.167,115.5 409.5,115.5C 433.451,86.8811 458.118,58.8811 483.5,31.5 Z"/></g>
<g><path style="opacity:0.956" fill="#79c44d" d="M 395.5,47.5 C 401.167,47.5 406.833,47.5 412.5,47.5C 408.08,53.32 403.414,58.9867 398.5,64.5C 395.167,64.5 391.833,64.5 388.5,64.5C 388.5,67.8333 388.5,71.1667 388.5,74.5C 383.912,81.4248 378.578,87.7582 372.5,93.5C 369.71,89.5844 367.71,85.251 366.5,80.5C 376.51,69.8219 386.177,58.8219 395.5,47.5 Z"/></g>
<g><path style="opacity:0.933" fill="#73c24f" d="M 412.5,47.5 C 418.167,47.5 423.833,47.5 429.5,47.5C 425.167,53.1667 420.833,58.8333 416.5,64.5C 410.5,64.5 404.5,64.5 398.5,64.5C 403.414,58.9867 408.08,53.32 412.5,47.5 Z"/></g>
<g><path style="opacity:0.933" fill="#6fc250" d="M 429.5,47.5 C 432.167,47.5 434.833,47.5 437.5,47.5C 432.833,53.1667 428.167,58.8333 423.5,64.5C 421.167,64.5 418.833,64.5 416.5,64.5C 420.833,58.8333 425.167,53.1667 429.5,47.5 Z"/></g>
<g><path style="opacity:0.931" fill="#6cc150" d="M 437.5,47.5 C 439.5,47.5 441.5,47.5 443.5,47.5C 438.833,53.1667 434.167,58.8333 429.5,64.5C 427.5,64.5 425.5,64.5 423.5,64.5C 428.167,58.8333 432.833,53.1667 437.5,47.5 Z"/></g>
<g><path style="opacity:0.931" fill="#6bc151" d="M 443.5,47.5 C 445.167,47.5 446.833,47.5 448.5,47.5C 443.81,53.1858 439.143,58.8525 434.5,64.5C 432.833,64.5 431.167,64.5 429.5,64.5C 434.167,58.8333 438.833,53.1667 443.5,47.5 Z"/></g>
<g><path style="opacity:0.977" fill="#5abc56" d="M 486.5,47.5 C 486.5,53.5 486.5,59.5 486.5,65.5C 465.128,88.596 444.462,112.263 424.5,136.5C 424.5,136.833 424.5,137.167 424.5,137.5C 422.167,137.5 419.833,137.5 417.5,137.5C 420.342,132.145 424.175,127.478 429,123.5C 430.123,120.751 431.623,118.251 433.5,116C 431.19,115.503 428.857,115.337 426.5,115.5C 446.157,92.511 466.157,69.8444 486.5,47.5 Z"/></g>
<g><path style="opacity:0.981" fill="#56bc57" d="M 486.5,65.5 C 486.5,69.1667 486.5,72.8333 486.5,76.5C 485.504,76.4142 484.671,76.7476 484,77.5C 467.698,96.0631 451.532,114.73 435.5,133.5C 432.014,135.106 428.347,136.106 424.5,136.5C 444.462,112.263 465.128,88.596 486.5,65.5 Z"/></g>
<g><path style="opacity:0.954" fill="#73c24f" d="M 388.5,74.5 C 394.5,74.5 400.5,74.5 406.5,74.5C 398.538,84.1311 390.204,93.4645 381.5,102.5C 377.522,100.522 374.522,97.5216 372.5,93.5C 378.578,87.7582 383.912,81.4248 388.5,74.5 Z"/></g>
<g><path style="opacity:0.966" fill="#6fc250" d="M 406.5,74.5 C 408.833,74.5 411.167,74.5 413.5,74.5C 404.523,85.1473 395.523,95.814 386.5,106.5C 384.251,105.92 382.585,104.587 381.5,102.5C 390.204,93.4645 398.538,84.1311 406.5,74.5 Z"/></g>
<g><path style="opacity:0.964" fill="#6cc150" d="M 413.5,74.5 C 415.5,74.5 417.5,74.5 419.5,74.5C 409.463,85.8695 399.796,97.5362 390.5,109.5C 389.128,108.488 387.795,107.488 386.5,106.5C 395.523,95.814 404.523,85.1473 413.5,74.5 Z"/></g>
<g><path style="opacity:0.968" fill="#6bc151" d="M 419.5,74.5 C 421.167,74.5 422.833,74.5 424.5,74.5C 414.167,86.5 403.833,98.5 393.5,110.5C 392.391,110.443 391.391,110.11 390.5,109.5C 399.796,97.5362 409.463,85.8695 419.5,74.5 Z"/></g>
<g><path style="opacity:0.962" fill="#53bb58" d="M 486.5,76.5 C 485.452,82.0268 483.785,87.3601 481.5,92.5C 470.723,102.605 461.056,113.605 452.5,125.5C 447.296,128.933 441.629,131.6 435.5,133.5C 451.532,114.73 467.698,96.0631 484,77.5C 484.671,76.7476 485.504,76.4142 486.5,76.5 Z"/></g>
<g><path style="opacity:0.95" fill="#222335" d="M 173.5,92.5 C 180.167,92.5 186.833,92.5 193.5,92.5C 193.5,95.8333 193.5,99.1667 193.5,102.5C 186.833,102.5 180.167,102.5 173.5,102.5C 173.5,99.1667 173.5,95.8333 173.5,92.5 Z"/></g>
<g><path style="opacity:0.929" fill="#222335" d="M 198.5,92.5 C 205.167,92.5 211.833,92.5 218.5,92.5C 218.5,95.8333 218.5,99.1667 218.5,102.5C 216.833,102.5 215.167,102.5 213.5,102.5C 213.5,105.167 213.5,107.833 213.5,110.5C 210.167,110.5 206.833,110.5 203.5,110.5C 203.5,107.833 203.5,105.167 203.5,102.5C 201.833,102.5 200.167,102.5 198.5,102.5C 198.5,99.1667 198.5,95.8333 198.5,92.5 Z"/></g>
<g><path style="opacity:0.855" fill="#50ba59" d="M 481.5,92.5 C 475.725,106.94 466.059,117.94 452.5,125.5C 461.056,113.605 470.723,102.605 481.5,92.5 Z"/></g>
</svg>
